<mxfile host="app.diagrams.net" modified="2021-07-20T11:56:01.907Z" agent="5.0 (Windows)" etag="pdXzvCOgWd6wP2sSYzRm" version="14.8.5" type="github">
  <diagram id="gIogGsXuzQi1VI0tjLUq" name="Page-1">
    <mxGraphModel dx="331" dy="177" grid="1" gridSize="10" guides="1" tooltips="1" connect="1" arrows="1" fold="1" page="1" pageScale="1" pageWidth="4681" pageHeight="3300" math="0" shadow="0">
      <root>
        <mxCell id="0" />
        <mxCell id="1" parent="0" />
        <mxCell id="aOOabZM7SZLnajDP1h2--131" style="rounded=1;jumpSize=20;orthogonalLoop=1;jettySize=auto;html=1;entryX=0;entryY=0.5;entryDx=0;entryDy=0;strokeWidth=1;" parent="1" source="aOOabZM7SZLnajDP1h2--132" target="aOOabZM7SZLnajDP1h2--156" edge="1">
          <mxGeometry relative="1" as="geometry" />
        </mxCell>
        <mxCell id="aOOabZM7SZLnajDP1h2--132" value="" style="ellipse;whiteSpace=wrap;html=1;aspect=fixed;" parent="1" vertex="1">
          <mxGeometry x="790" y="185" width="30" height="30" as="geometry" />
        </mxCell>
        <mxCell id="4BS046eD1vQbMhQOOICh-1" style="rounded=0;orthogonalLoop=1;jettySize=auto;html=1;entryX=0;entryY=0.5;entryDx=0;entryDy=0;" edge="1" parent="1" source="aOOabZM7SZLnajDP1h2--133" target="aOOabZM7SZLnajDP1h2--149">
          <mxGeometry relative="1" as="geometry" />
        </mxCell>
        <mxCell id="aOOabZM7SZLnajDP1h2--133" value="" style="ellipse;whiteSpace=wrap;html=1;aspect=fixed;" parent="1" vertex="1">
          <mxGeometry x="790" y="225" width="30" height="30" as="geometry" />
        </mxCell>
        <mxCell id="aOOabZM7SZLnajDP1h2--134" style="rounded=1;jumpSize=20;orthogonalLoop=1;jettySize=auto;html=1;entryX=0;entryY=0.5;entryDx=0;entryDy=0;strokeWidth=1;" parent="1" source="aOOabZM7SZLnajDP1h2--137" target="aOOabZM7SZLnajDP1h2--149" edge="1">
          <mxGeometry relative="1" as="geometry" />
        </mxCell>
        <mxCell id="aOOabZM7SZLnajDP1h2--135" style="edgeStyle=none;rounded=1;jumpSize=20;orthogonalLoop=1;jettySize=auto;html=1;entryX=0;entryY=0.5;entryDx=0;entryDy=0;strokeWidth=1;" parent="1" source="aOOabZM7SZLnajDP1h2--137" target="aOOabZM7SZLnajDP1h2--162" edge="1">
          <mxGeometry relative="1" as="geometry" />
        </mxCell>
        <mxCell id="aOOabZM7SZLnajDP1h2--136" style="edgeStyle=none;rounded=1;jumpSize=20;orthogonalLoop=1;jettySize=auto;html=1;entryX=0;entryY=0.5;entryDx=0;entryDy=0;strokeWidth=1;" parent="1" source="aOOabZM7SZLnajDP1h2--137" target="aOOabZM7SZLnajDP1h2--159" edge="1">
          <mxGeometry relative="1" as="geometry" />
        </mxCell>
        <mxCell id="aOOabZM7SZLnajDP1h2--137" value="" style="ellipse;whiteSpace=wrap;html=1;aspect=fixed;" parent="1" vertex="1">
          <mxGeometry x="790" y="265" width="30" height="30" as="geometry" />
        </mxCell>
        <mxCell id="aOOabZM7SZLnajDP1h2--138" style="rounded=1;jumpSize=20;orthogonalLoop=1;jettySize=auto;html=1;entryX=0;entryY=0.5;entryDx=0;entryDy=0;strokeWidth=1;" parent="1" source="aOOabZM7SZLnajDP1h2--139" target="aOOabZM7SZLnajDP1h2--152" edge="1">
          <mxGeometry relative="1" as="geometry" />
        </mxCell>
        <mxCell id="aOOabZM7SZLnajDP1h2--139" value="" style="ellipse;whiteSpace=wrap;html=1;aspect=fixed;" parent="1" vertex="1">
          <mxGeometry x="790" y="305" width="30" height="30" as="geometry" />
        </mxCell>
        <mxCell id="aOOabZM7SZLnajDP1h2--140" style="rounded=1;jumpSize=20;orthogonalLoop=1;jettySize=auto;html=1;entryX=0;entryY=0.5;entryDx=0;entryDy=0;strokeWidth=1;" parent="1" source="aOOabZM7SZLnajDP1h2--143" target="aOOabZM7SZLnajDP1h2--151" edge="1">
          <mxGeometry relative="1" as="geometry" />
        </mxCell>
        <mxCell id="aOOabZM7SZLnajDP1h2--141" style="edgeStyle=none;rounded=1;jumpSize=20;orthogonalLoop=1;jettySize=auto;html=1;entryX=0;entryY=0.5;entryDx=0;entryDy=0;strokeWidth=1;" parent="1" source="aOOabZM7SZLnajDP1h2--143" target="aOOabZM7SZLnajDP1h2--164" edge="1">
          <mxGeometry relative="1" as="geometry" />
        </mxCell>
        <mxCell id="aOOabZM7SZLnajDP1h2--142" style="edgeStyle=none;rounded=1;jumpSize=20;orthogonalLoop=1;jettySize=auto;html=1;entryX=0;entryY=0.5;entryDx=0;entryDy=0;strokeWidth=1;" parent="1" source="aOOabZM7SZLnajDP1h2--143" target="aOOabZM7SZLnajDP1h2--162" edge="1">
          <mxGeometry relative="1" as="geometry" />
        </mxCell>
        <mxCell id="aOOabZM7SZLnajDP1h2--143" value="" style="ellipse;whiteSpace=wrap;html=1;aspect=fixed;" parent="1" vertex="1">
          <mxGeometry x="790" y="345" width="30" height="30" as="geometry" />
        </mxCell>
        <mxCell id="aOOabZM7SZLnajDP1h2--144" style="edgeStyle=none;rounded=1;jumpSize=20;orthogonalLoop=1;jettySize=auto;html=1;entryX=0;entryY=0.5;entryDx=0;entryDy=0;strokeWidth=1;" parent="1" source="aOOabZM7SZLnajDP1h2--145" target="aOOabZM7SZLnajDP1h2--151" edge="1">
          <mxGeometry relative="1" as="geometry" />
        </mxCell>
        <mxCell id="aOOabZM7SZLnajDP1h2--145" value="" style="ellipse;whiteSpace=wrap;html=1;aspect=fixed;" parent="1" vertex="1">
          <mxGeometry x="790" y="385" width="30" height="30" as="geometry" />
        </mxCell>
        <mxCell id="aOOabZM7SZLnajDP1h2--146" style="edgeStyle=none;rounded=1;jumpSize=20;orthogonalLoop=1;jettySize=auto;html=1;entryX=0;entryY=0.5;entryDx=0;entryDy=0;strokeWidth=1;" parent="1" source="aOOabZM7SZLnajDP1h2--147" target="aOOabZM7SZLnajDP1h2--162" edge="1">
          <mxGeometry relative="1" as="geometry" />
        </mxCell>
        <mxCell id="aOOabZM7SZLnajDP1h2--147" value="" style="ellipse;whiteSpace=wrap;html=1;aspect=fixed;" parent="1" vertex="1">
          <mxGeometry x="790" y="425" width="30" height="30" as="geometry" />
        </mxCell>
        <mxCell id="aOOabZM7SZLnajDP1h2--148" style="edgeStyle=none;rounded=1;jumpSize=20;orthogonalLoop=1;jettySize=auto;html=1;entryX=0;entryY=0.5;entryDx=0;entryDy=0;strokeWidth=1;" parent="1" source="aOOabZM7SZLnajDP1h2--149" target="aOOabZM7SZLnajDP1h2--175" edge="1">
          <mxGeometry relative="1" as="geometry" />
        </mxCell>
        <mxCell id="aOOabZM7SZLnajDP1h2--149" value="" style="ellipse;whiteSpace=wrap;html=1;aspect=fixed;" parent="1" vertex="1">
          <mxGeometry x="870" y="185" width="30" height="30" as="geometry" />
        </mxCell>
        <mxCell id="aOOabZM7SZLnajDP1h2--150" style="edgeStyle=none;rounded=1;jumpSize=20;orthogonalLoop=1;jettySize=auto;html=1;entryX=0;entryY=0.5;entryDx=0;entryDy=0;strokeWidth=1;" parent="1" source="aOOabZM7SZLnajDP1h2--151" target="aOOabZM7SZLnajDP1h2--180" edge="1">
          <mxGeometry relative="1" as="geometry" />
        </mxCell>
        <mxCell id="aOOabZM7SZLnajDP1h2--151" value="" style="ellipse;whiteSpace=wrap;html=1;aspect=fixed;" parent="1" vertex="1">
          <mxGeometry x="870" y="225" width="30" height="30" as="geometry" />
        </mxCell>
        <mxCell id="aOOabZM7SZLnajDP1h2--152" value="" style="ellipse;whiteSpace=wrap;html=1;aspect=fixed;" parent="1" vertex="1">
          <mxGeometry x="870" y="265" width="30" height="30" as="geometry" />
        </mxCell>
        <mxCell id="aOOabZM7SZLnajDP1h2--153" style="edgeStyle=none;rounded=1;jumpSize=20;orthogonalLoop=1;jettySize=auto;html=1;entryX=0;entryY=0.5;entryDx=0;entryDy=0;strokeWidth=1;" parent="1" source="aOOabZM7SZLnajDP1h2--156" target="aOOabZM7SZLnajDP1h2--169" edge="1">
          <mxGeometry relative="1" as="geometry" />
        </mxCell>
        <mxCell id="aOOabZM7SZLnajDP1h2--154" style="edgeStyle=none;rounded=1;jumpSize=20;orthogonalLoop=1;jettySize=auto;html=1;entryX=0;entryY=0.5;entryDx=0;entryDy=0;strokeWidth=1;" parent="1" source="aOOabZM7SZLnajDP1h2--156" target="aOOabZM7SZLnajDP1h2--177" edge="1">
          <mxGeometry relative="1" as="geometry" />
        </mxCell>
        <mxCell id="aOOabZM7SZLnajDP1h2--155" style="edgeStyle=none;rounded=1;jumpSize=20;orthogonalLoop=1;jettySize=auto;html=1;entryX=0;entryY=0.5;entryDx=0;entryDy=0;strokeWidth=1;" parent="1" source="aOOabZM7SZLnajDP1h2--156" target="aOOabZM7SZLnajDP1h2--171" edge="1">
          <mxGeometry relative="1" as="geometry" />
        </mxCell>
        <mxCell id="aOOabZM7SZLnajDP1h2--156" value="" style="ellipse;whiteSpace=wrap;html=1;aspect=fixed;" parent="1" vertex="1">
          <mxGeometry x="870" y="305" width="30" height="30" as="geometry" />
        </mxCell>
        <mxCell id="aOOabZM7SZLnajDP1h2--157" style="edgeStyle=none;rounded=1;jumpSize=20;orthogonalLoop=1;jettySize=auto;html=1;entryX=0;entryY=0.5;entryDx=0;entryDy=0;strokeWidth=1;" parent="1" source="aOOabZM7SZLnajDP1h2--159" target="aOOabZM7SZLnajDP1h2--171" edge="1">
          <mxGeometry relative="1" as="geometry" />
        </mxCell>
        <mxCell id="aOOabZM7SZLnajDP1h2--158" style="edgeStyle=none;rounded=1;jumpSize=20;orthogonalLoop=1;jettySize=auto;html=1;entryX=0;entryY=0.5;entryDx=0;entryDy=0;strokeWidth=1;" parent="1" source="aOOabZM7SZLnajDP1h2--159" target="aOOabZM7SZLnajDP1h2--180" edge="1">
          <mxGeometry relative="1" as="geometry" />
        </mxCell>
        <mxCell id="aOOabZM7SZLnajDP1h2--159" value="" style="ellipse;whiteSpace=wrap;html=1;aspect=fixed;" parent="1" vertex="1">
          <mxGeometry x="870" y="345" width="30" height="30" as="geometry" />
        </mxCell>
        <mxCell id="aOOabZM7SZLnajDP1h2--160" style="edgeStyle=none;rounded=1;jumpSize=20;orthogonalLoop=1;jettySize=auto;html=1;entryX=0;entryY=0.5;entryDx=0;entryDy=0;strokeWidth=1;" parent="1" source="aOOabZM7SZLnajDP1h2--162" target="aOOabZM7SZLnajDP1h2--173" edge="1">
          <mxGeometry relative="1" as="geometry" />
        </mxCell>
        <mxCell id="aOOabZM7SZLnajDP1h2--161" style="edgeStyle=none;rounded=1;jumpSize=20;orthogonalLoop=1;jettySize=auto;html=1;entryX=0;entryY=0.5;entryDx=0;entryDy=0;strokeWidth=1;" parent="1" source="aOOabZM7SZLnajDP1h2--162" target="aOOabZM7SZLnajDP1h2--182" edge="1">
          <mxGeometry relative="1" as="geometry" />
        </mxCell>
        <mxCell id="aOOabZM7SZLnajDP1h2--162" value="" style="ellipse;whiteSpace=wrap;html=1;aspect=fixed;" parent="1" vertex="1">
          <mxGeometry x="870" y="385" width="30" height="30" as="geometry" />
        </mxCell>
        <mxCell id="aOOabZM7SZLnajDP1h2--163" style="edgeStyle=none;rounded=1;jumpSize=20;orthogonalLoop=1;jettySize=auto;html=1;entryX=0;entryY=0.5;entryDx=0;entryDy=0;strokeWidth=1;" parent="1" source="aOOabZM7SZLnajDP1h2--164" target="aOOabZM7SZLnajDP1h2--177" edge="1">
          <mxGeometry relative="1" as="geometry" />
        </mxCell>
        <mxCell id="aOOabZM7SZLnajDP1h2--164" value="" style="ellipse;whiteSpace=wrap;html=1;aspect=fixed;" parent="1" vertex="1">
          <mxGeometry x="870" y="425" width="30" height="30" as="geometry" />
        </mxCell>
        <mxCell id="aOOabZM7SZLnajDP1h2--165" value="Dense layers" style="text;html=1;strokeColor=none;fillColor=none;align=center;verticalAlign=middle;whiteSpace=wrap;rounded=0;" parent="1" vertex="1">
          <mxGeometry x="840" y="470" width="250" height="20" as="geometry" />
        </mxCell>
        <mxCell id="aOOabZM7SZLnajDP1h2--166" value="Flatten" style="text;html=1;strokeColor=none;fillColor=none;align=center;verticalAlign=middle;whiteSpace=wrap;rounded=0;" parent="1" vertex="1">
          <mxGeometry x="680" y="470" width="250" height="20" as="geometry" />
        </mxCell>
        <mxCell id="aOOabZM7SZLnajDP1h2--167" style="edgeStyle=none;rounded=1;jumpSize=20;orthogonalLoop=1;jettySize=auto;html=1;entryX=0;entryY=0.5;entryDx=0;entryDy=0;strokeWidth=1;" parent="1" source="aOOabZM7SZLnajDP1h2--169" target="aOOabZM7SZLnajDP1h2--194" edge="1">
          <mxGeometry relative="1" as="geometry" />
        </mxCell>
        <mxCell id="aOOabZM7SZLnajDP1h2--168" style="edgeStyle=none;rounded=1;jumpSize=20;orthogonalLoop=1;jettySize=auto;html=1;strokeWidth=1;" parent="1" source="aOOabZM7SZLnajDP1h2--169" edge="1">
          <mxGeometry relative="1" as="geometry">
            <mxPoint x="1030" y="360" as="targetPoint" />
          </mxGeometry>
        </mxCell>
        <mxCell id="aOOabZM7SZLnajDP1h2--169" value="" style="ellipse;whiteSpace=wrap;html=1;aspect=fixed;" parent="1" vertex="1">
          <mxGeometry x="950" y="185" width="30" height="30" as="geometry" />
        </mxCell>
        <mxCell id="aOOabZM7SZLnajDP1h2--170" style="edgeStyle=none;rounded=1;jumpSize=20;orthogonalLoop=1;jettySize=auto;html=1;entryX=0;entryY=0.5;entryDx=0;entryDy=0;strokeWidth=1;" parent="1" source="aOOabZM7SZLnajDP1h2--171" target="aOOabZM7SZLnajDP1h2--200" edge="1">
          <mxGeometry relative="1" as="geometry" />
        </mxCell>
        <mxCell id="aOOabZM7SZLnajDP1h2--171" value="" style="ellipse;whiteSpace=wrap;html=1;aspect=fixed;" parent="1" vertex="1">
          <mxGeometry x="950" y="225" width="30" height="30" as="geometry" />
        </mxCell>
        <mxCell id="aOOabZM7SZLnajDP1h2--172" style="edgeStyle=none;rounded=1;jumpSize=20;orthogonalLoop=1;jettySize=auto;html=1;entryX=0;entryY=0.5;entryDx=0;entryDy=0;strokeWidth=1;" parent="1" source="aOOabZM7SZLnajDP1h2--173" target="aOOabZM7SZLnajDP1h2--197" edge="1">
          <mxGeometry relative="1" as="geometry" />
        </mxCell>
        <mxCell id="aOOabZM7SZLnajDP1h2--173" value="" style="ellipse;whiteSpace=wrap;html=1;aspect=fixed;" parent="1" vertex="1">
          <mxGeometry x="950" y="265" width="30" height="30" as="geometry" />
        </mxCell>
        <mxCell id="aOOabZM7SZLnajDP1h2--174" style="edgeStyle=none;rounded=1;jumpSize=20;orthogonalLoop=1;jettySize=auto;html=1;entryX=0;entryY=0.5;entryDx=0;entryDy=0;strokeWidth=1;" parent="1" source="aOOabZM7SZLnajDP1h2--175" target="aOOabZM7SZLnajDP1h2--188" edge="1">
          <mxGeometry relative="1" as="geometry" />
        </mxCell>
        <mxCell id="aOOabZM7SZLnajDP1h2--175" value="" style="ellipse;whiteSpace=wrap;html=1;aspect=fixed;" parent="1" vertex="1">
          <mxGeometry x="950" y="305" width="30" height="30" as="geometry" />
        </mxCell>
        <mxCell id="aOOabZM7SZLnajDP1h2--176" style="edgeStyle=none;rounded=1;jumpSize=20;orthogonalLoop=1;jettySize=auto;html=1;entryX=0;entryY=0.5;entryDx=0;entryDy=0;strokeWidth=1;" parent="1" source="aOOabZM7SZLnajDP1h2--177" target="aOOabZM7SZLnajDP1h2--203" edge="1">
          <mxGeometry relative="1" as="geometry" />
        </mxCell>
        <mxCell id="aOOabZM7SZLnajDP1h2--177" value="" style="ellipse;whiteSpace=wrap;html=1;aspect=fixed;" parent="1" vertex="1">
          <mxGeometry x="950" y="345" width="30" height="30" as="geometry" />
        </mxCell>
        <mxCell id="aOOabZM7SZLnajDP1h2--178" style="edgeStyle=none;rounded=1;jumpSize=20;orthogonalLoop=1;jettySize=auto;html=1;entryX=0;entryY=0.5;entryDx=0;entryDy=0;strokeWidth=1;" parent="1" source="aOOabZM7SZLnajDP1h2--180" target="aOOabZM7SZLnajDP1h2--191" edge="1">
          <mxGeometry relative="1" as="geometry" />
        </mxCell>
        <mxCell id="aOOabZM7SZLnajDP1h2--179" style="edgeStyle=none;rounded=1;jumpSize=20;orthogonalLoop=1;jettySize=auto;html=1;entryX=0;entryY=0.5;entryDx=0;entryDy=0;strokeWidth=1;" parent="1" source="aOOabZM7SZLnajDP1h2--180" target="aOOabZM7SZLnajDP1h2--200" edge="1">
          <mxGeometry relative="1" as="geometry" />
        </mxCell>
        <mxCell id="aOOabZM7SZLnajDP1h2--180" value="" style="ellipse;whiteSpace=wrap;html=1;aspect=fixed;" parent="1" vertex="1">
          <mxGeometry x="950" y="385" width="30" height="30" as="geometry" />
        </mxCell>
        <mxCell id="aOOabZM7SZLnajDP1h2--181" style="edgeStyle=none;rounded=1;jumpSize=20;orthogonalLoop=1;jettySize=auto;html=1;entryX=0;entryY=0.5;entryDx=0;entryDy=0;strokeWidth=1;" parent="1" source="aOOabZM7SZLnajDP1h2--182" target="aOOabZM7SZLnajDP1h2--185" edge="1">
          <mxGeometry relative="1" as="geometry" />
        </mxCell>
        <mxCell id="aOOabZM7SZLnajDP1h2--182" value="" style="ellipse;whiteSpace=wrap;html=1;aspect=fixed;" parent="1" vertex="1">
          <mxGeometry x="950" y="425" width="30" height="30" as="geometry" />
        </mxCell>
        <mxCell id="aOOabZM7SZLnajDP1h2--183" style="edgeStyle=none;rounded=1;jumpSize=20;orthogonalLoop=1;jettySize=auto;html=1;entryX=0;entryY=0.5;entryDx=0;entryDy=0;strokeWidth=1;" parent="1" source="aOOabZM7SZLnajDP1h2--185" target="aOOabZM7SZLnajDP1h2--205" edge="1">
          <mxGeometry relative="1" as="geometry" />
        </mxCell>
        <mxCell id="aOOabZM7SZLnajDP1h2--184" style="edgeStyle=none;rounded=1;jumpSize=20;orthogonalLoop=1;jettySize=auto;html=1;entryX=0;entryY=0.5;entryDx=0;entryDy=0;strokeWidth=1;" parent="1" source="aOOabZM7SZLnajDP1h2--185" target="aOOabZM7SZLnajDP1h2--206" edge="1">
          <mxGeometry relative="1" as="geometry" />
        </mxCell>
        <mxCell id="aOOabZM7SZLnajDP1h2--185" value="" style="ellipse;whiteSpace=wrap;html=1;aspect=fixed;" parent="1" vertex="1">
          <mxGeometry x="1030" y="185" width="30" height="30" as="geometry" />
        </mxCell>
        <mxCell id="aOOabZM7SZLnajDP1h2--186" style="edgeStyle=none;rounded=1;jumpSize=20;orthogonalLoop=1;jettySize=auto;html=1;entryX=0;entryY=0.5;entryDx=0;entryDy=0;strokeWidth=1;" parent="1" source="aOOabZM7SZLnajDP1h2--188" target="aOOabZM7SZLnajDP1h2--206" edge="1">
          <mxGeometry relative="1" as="geometry" />
        </mxCell>
        <mxCell id="aOOabZM7SZLnajDP1h2--187" style="edgeStyle=none;rounded=1;jumpSize=20;orthogonalLoop=1;jettySize=auto;html=1;strokeWidth=1;entryX=0;entryY=0.5;entryDx=0;entryDy=0;" parent="1" source="aOOabZM7SZLnajDP1h2--188" edge="1" target="aOOabZM7SZLnajDP1h2--205">
          <mxGeometry relative="1" as="geometry">
            <mxPoint x="1130" y="320" as="targetPoint" />
          </mxGeometry>
        </mxCell>
        <mxCell id="aOOabZM7SZLnajDP1h2--188" value="" style="ellipse;whiteSpace=wrap;html=1;aspect=fixed;" parent="1" vertex="1">
          <mxGeometry x="1030" y="225" width="30" height="30" as="geometry" />
        </mxCell>
        <mxCell id="aOOabZM7SZLnajDP1h2--189" style="edgeStyle=none;rounded=1;jumpSize=20;orthogonalLoop=1;jettySize=auto;html=1;entryX=0;entryY=0.5;entryDx=0;entryDy=0;strokeWidth=1;" parent="1" source="aOOabZM7SZLnajDP1h2--191" target="aOOabZM7SZLnajDP1h2--205" edge="1">
          <mxGeometry relative="1" as="geometry" />
        </mxCell>
        <mxCell id="aOOabZM7SZLnajDP1h2--190" style="edgeStyle=none;rounded=1;jumpSize=20;orthogonalLoop=1;jettySize=auto;html=1;strokeWidth=1;" parent="1" source="aOOabZM7SZLnajDP1h2--191" edge="1">
          <mxGeometry relative="1" as="geometry">
            <mxPoint x="1140" y="360" as="targetPoint" />
          </mxGeometry>
        </mxCell>
        <mxCell id="aOOabZM7SZLnajDP1h2--191" value="" style="ellipse;whiteSpace=wrap;html=1;aspect=fixed;" parent="1" vertex="1">
          <mxGeometry x="1030" y="265" width="30" height="30" as="geometry" />
        </mxCell>
        <mxCell id="aOOabZM7SZLnajDP1h2--192" style="edgeStyle=none;rounded=1;jumpSize=20;orthogonalLoop=1;jettySize=auto;html=1;entryX=0;entryY=0.5;entryDx=0;entryDy=0;strokeWidth=1;" parent="1" source="aOOabZM7SZLnajDP1h2--194" target="aOOabZM7SZLnajDP1h2--206" edge="1">
          <mxGeometry relative="1" as="geometry" />
        </mxCell>
        <mxCell id="aOOabZM7SZLnajDP1h2--193" style="edgeStyle=none;rounded=1;jumpSize=20;orthogonalLoop=1;jettySize=auto;html=1;strokeWidth=1;" parent="1" source="aOOabZM7SZLnajDP1h2--194" edge="1">
          <mxGeometry relative="1" as="geometry">
            <mxPoint x="1140" y="320" as="targetPoint" />
          </mxGeometry>
        </mxCell>
        <mxCell id="aOOabZM7SZLnajDP1h2--194" value="" style="ellipse;whiteSpace=wrap;html=1;aspect=fixed;" parent="1" vertex="1">
          <mxGeometry x="1030" y="305" width="30" height="30" as="geometry" />
        </mxCell>
        <mxCell id="aOOabZM7SZLnajDP1h2--195" style="edgeStyle=none;rounded=1;jumpSize=20;orthogonalLoop=1;jettySize=auto;html=1;entryX=0;entryY=0.5;entryDx=0;entryDy=0;strokeWidth=1;" parent="1" source="aOOabZM7SZLnajDP1h2--197" target="aOOabZM7SZLnajDP1h2--205" edge="1">
          <mxGeometry relative="1" as="geometry" />
        </mxCell>
        <mxCell id="aOOabZM7SZLnajDP1h2--196" style="edgeStyle=none;rounded=1;jumpSize=20;orthogonalLoop=1;jettySize=auto;html=1;strokeWidth=1;entryX=0;entryY=0.5;entryDx=0;entryDy=0;" parent="1" source="aOOabZM7SZLnajDP1h2--197" edge="1" target="aOOabZM7SZLnajDP1h2--206">
          <mxGeometry relative="1" as="geometry">
            <mxPoint x="1130" y="360" as="targetPoint" />
          </mxGeometry>
        </mxCell>
        <mxCell id="aOOabZM7SZLnajDP1h2--197" value="" style="ellipse;whiteSpace=wrap;html=1;aspect=fixed;" parent="1" vertex="1">
          <mxGeometry x="1030" y="345" width="30" height="30" as="geometry" />
        </mxCell>
        <mxCell id="aOOabZM7SZLnajDP1h2--198" style="edgeStyle=none;rounded=1;jumpSize=20;orthogonalLoop=1;jettySize=auto;html=1;strokeWidth=1;" parent="1" source="aOOabZM7SZLnajDP1h2--200" edge="1">
          <mxGeometry relative="1" as="geometry">
            <mxPoint x="1140" y="360" as="targetPoint" />
          </mxGeometry>
        </mxCell>
        <mxCell id="aOOabZM7SZLnajDP1h2--199" style="edgeStyle=none;rounded=1;jumpSize=20;orthogonalLoop=1;jettySize=auto;html=1;strokeWidth=1;" parent="1" source="aOOabZM7SZLnajDP1h2--200" edge="1">
          <mxGeometry relative="1" as="geometry">
            <mxPoint x="1130" y="320" as="targetPoint" />
          </mxGeometry>
        </mxCell>
        <mxCell id="aOOabZM7SZLnajDP1h2--200" value="" style="ellipse;whiteSpace=wrap;html=1;aspect=fixed;" parent="1" vertex="1">
          <mxGeometry x="1030" y="385" width="30" height="30" as="geometry" />
        </mxCell>
        <mxCell id="aOOabZM7SZLnajDP1h2--201" style="edgeStyle=none;rounded=1;jumpSize=20;orthogonalLoop=1;jettySize=auto;html=1;entryX=0;entryY=0.5;entryDx=0;entryDy=0;strokeWidth=1;" parent="1" source="aOOabZM7SZLnajDP1h2--203" target="aOOabZM7SZLnajDP1h2--205" edge="1">
          <mxGeometry relative="1" as="geometry" />
        </mxCell>
        <mxCell id="aOOabZM7SZLnajDP1h2--202" style="edgeStyle=none;rounded=1;jumpSize=20;orthogonalLoop=1;jettySize=auto;html=1;strokeWidth=1;entryX=0;entryY=0.5;entryDx=0;entryDy=0;" parent="1" source="aOOabZM7SZLnajDP1h2--203" edge="1" target="aOOabZM7SZLnajDP1h2--206">
          <mxGeometry relative="1" as="geometry">
            <mxPoint x="1130" y="360" as="targetPoint" />
          </mxGeometry>
        </mxCell>
        <mxCell id="aOOabZM7SZLnajDP1h2--203" value="" style="ellipse;whiteSpace=wrap;html=1;aspect=fixed;" parent="1" vertex="1">
          <mxGeometry x="1030" y="425" width="30" height="30" as="geometry" />
        </mxCell>
        <mxCell id="aOOabZM7SZLnajDP1h2--204" value="&lt;div&gt;Output&lt;/div&gt;" style="text;html=1;strokeColor=none;fillColor=none;align=center;verticalAlign=middle;whiteSpace=wrap;rounded=0;" parent="1" vertex="1">
          <mxGeometry x="1026" y="470" width="250" height="20" as="geometry" />
        </mxCell>
        <mxCell id="aOOabZM7SZLnajDP1h2--205" value="" style="ellipse;whiteSpace=wrap;html=1;aspect=fixed;fillColor=#dae8fc;strokeColor=#6c8ebf;" parent="1" vertex="1">
          <mxGeometry x="1136" y="305" width="30" height="30" as="geometry" />
        </mxCell>
        <mxCell id="aOOabZM7SZLnajDP1h2--206" value="" style="ellipse;whiteSpace=wrap;html=1;aspect=fixed;fillColor=#d5e8d4;strokeColor=#82b366;" parent="1" vertex="1">
          <mxGeometry x="1136" y="345" width="30" height="30" as="geometry" />
        </mxCell>
        <mxCell id="aOOabZM7SZLnajDP1h2--256" style="edgeStyle=orthogonalEdgeStyle;rounded=0;orthogonalLoop=1;jettySize=auto;html=1;" parent="1" target="aOOabZM7SZLnajDP1h2--139" edge="1">
          <mxGeometry relative="1" as="geometry">
            <Array as="points">
              <mxPoint x="740" y="323" />
              <mxPoint x="740" y="323" />
            </Array>
            <mxPoint x="710" y="323" as="sourcePoint" />
          </mxGeometry>
        </mxCell>
        <mxCell id="4BS046eD1vQbMhQOOICh-2" value="" style="rounded=0;whiteSpace=wrap;html=1;shadow=1;glass=0;sketch=1;fillColor=#f5f5f5;strokeColor=#666666;fontColor=#333333;" vertex="1" parent="1">
          <mxGeometry x="615" y="259" width="28" height="26" as="geometry" />
        </mxCell>
        <mxCell id="4BS046eD1vQbMhQOOICh-3" value="" style="rounded=0;whiteSpace=wrap;html=1;shadow=1;glass=0;sketch=1;fillColor=#f5f5f5;strokeColor=#666666;fontColor=#333333;" vertex="1" parent="1">
          <mxGeometry x="643" y="259" width="28" height="26" as="geometry" />
        </mxCell>
        <mxCell id="4BS046eD1vQbMhQOOICh-4" value="" style="rounded=0;whiteSpace=wrap;html=1;shadow=1;glass=0;sketch=1;fillColor=#f5f5f5;strokeColor=#666666;fontColor=#333333;" vertex="1" parent="1">
          <mxGeometry x="671" y="259" width="28" height="26" as="geometry" />
        </mxCell>
        <mxCell id="4BS046eD1vQbMhQOOICh-5" value="" style="rounded=0;whiteSpace=wrap;html=1;shadow=1;glass=0;sketch=1;fillColor=#f5f5f5;strokeColor=#666666;fontColor=#333333;" vertex="1" parent="1">
          <mxGeometry x="615" y="285" width="28" height="26" as="geometry" />
        </mxCell>
        <mxCell id="4BS046eD1vQbMhQOOICh-6" value="" style="rounded=0;whiteSpace=wrap;html=1;shadow=1;glass=0;sketch=1;fillColor=#f5f5f5;strokeColor=#666666;fontColor=#333333;" vertex="1" parent="1">
          <mxGeometry x="643" y="285" width="28" height="26" as="geometry" />
        </mxCell>
        <mxCell id="4BS046eD1vQbMhQOOICh-7" value="" style="rounded=0;whiteSpace=wrap;html=1;shadow=1;glass=0;sketch=1;fillColor=#f5f5f5;strokeColor=#666666;fontColor=#333333;" vertex="1" parent="1">
          <mxGeometry x="671" y="285" width="28" height="26" as="geometry" />
        </mxCell>
        <mxCell id="4BS046eD1vQbMhQOOICh-8" value="" style="rounded=0;whiteSpace=wrap;html=1;shadow=1;glass=0;sketch=1;fillColor=#f5f5f5;strokeColor=#666666;fontColor=#333333;" vertex="1" parent="1">
          <mxGeometry x="615" y="311" width="28" height="26" as="geometry" />
        </mxCell>
        <mxCell id="4BS046eD1vQbMhQOOICh-9" value="" style="rounded=0;whiteSpace=wrap;html=1;shadow=1;glass=0;sketch=1;fillColor=#f5f5f5;strokeColor=#666666;fontColor=#333333;" vertex="1" parent="1">
          <mxGeometry x="643" y="311" width="28" height="26" as="geometry" />
        </mxCell>
        <mxCell id="4BS046eD1vQbMhQOOICh-10" value="" style="rounded=0;whiteSpace=wrap;html=1;shadow=1;glass=0;sketch=1;fillColor=#f5f5f5;strokeColor=#666666;fontColor=#333333;" vertex="1" parent="1">
          <mxGeometry x="671" y="311" width="28" height="26" as="geometry" />
        </mxCell>
        <mxCell id="4BS046eD1vQbMhQOOICh-11" value="" style="rounded=0;whiteSpace=wrap;html=1;shadow=1;glass=0;sketch=1;fillColor=#f5f5f5;strokeColor=#666666;fontColor=#333333;" vertex="1" parent="1">
          <mxGeometry x="615" y="337" width="28" height="26" as="geometry" />
        </mxCell>
        <mxCell id="4BS046eD1vQbMhQOOICh-12" value="" style="rounded=0;whiteSpace=wrap;html=1;shadow=1;glass=0;sketch=1;fillColor=#f5f5f5;strokeColor=#666666;fontColor=#333333;" vertex="1" parent="1">
          <mxGeometry x="643" y="337" width="28" height="26" as="geometry" />
        </mxCell>
        <mxCell id="4BS046eD1vQbMhQOOICh-13" value="" style="rounded=0;whiteSpace=wrap;html=1;shadow=1;glass=0;sketch=1;fillColor=#f5f5f5;strokeColor=#666666;fontColor=#333333;" vertex="1" parent="1">
          <mxGeometry x="671" y="337" width="28" height="26" as="geometry" />
        </mxCell>
        <mxCell id="4BS046eD1vQbMhQOOICh-14" value="" style="rounded=0;whiteSpace=wrap;html=1;shadow=1;glass=0;sketch=1;fillColor=#f5f5f5;strokeColor=#666666;fontColor=#333333;" vertex="1" parent="1">
          <mxGeometry x="615" y="363" width="28" height="26" as="geometry" />
        </mxCell>
        <mxCell id="4BS046eD1vQbMhQOOICh-15" value="" style="rounded=0;whiteSpace=wrap;html=1;shadow=1;glass=0;sketch=1;fillColor=#f5f5f5;strokeColor=#666666;fontColor=#333333;" vertex="1" parent="1">
          <mxGeometry x="643" y="363" width="28" height="26" as="geometry" />
        </mxCell>
        <mxCell id="4BS046eD1vQbMhQOOICh-16" value="" style="rounded=0;whiteSpace=wrap;html=1;shadow=1;glass=0;sketch=1;fillColor=#f5f5f5;strokeColor=#666666;fontColor=#333333;" vertex="1" parent="1">
          <mxGeometry x="671" y="363" width="28" height="26" as="geometry" />
        </mxCell>
        <mxCell id="4BS046eD1vQbMhQOOICh-17" value="" style="rounded=0;whiteSpace=wrap;html=1;shadow=1;glass=0;sketch=1;fillColor=#f5f5f5;strokeColor=#666666;fontColor=#333333;" vertex="1" parent="1">
          <mxGeometry x="530" y="259" width="28" height="26" as="geometry" />
        </mxCell>
        <mxCell id="4BS046eD1vQbMhQOOICh-18" value="" style="rounded=0;whiteSpace=wrap;html=1;shadow=1;glass=0;sketch=1;fillColor=#f5f5f5;strokeColor=#666666;fontColor=#333333;" vertex="1" parent="1">
          <mxGeometry x="558" y="259" width="28" height="26" as="geometry" />
        </mxCell>
        <mxCell id="4BS046eD1vQbMhQOOICh-19" value="" style="rounded=0;whiteSpace=wrap;html=1;shadow=1;glass=0;sketch=1;fillColor=#f5f5f5;strokeColor=#666666;fontColor=#333333;" vertex="1" parent="1">
          <mxGeometry x="586" y="259" width="28" height="26" as="geometry" />
        </mxCell>
        <mxCell id="4BS046eD1vQbMhQOOICh-20" value="" style="rounded=0;whiteSpace=wrap;html=1;shadow=1;glass=0;sketch=1;fillColor=#f5f5f5;strokeColor=#666666;fontColor=#333333;" vertex="1" parent="1">
          <mxGeometry x="530" y="285" width="28" height="26" as="geometry" />
        </mxCell>
        <mxCell id="4BS046eD1vQbMhQOOICh-21" value="" style="rounded=0;whiteSpace=wrap;html=1;shadow=1;glass=0;sketch=1;fillColor=#f5f5f5;strokeColor=#666666;fontColor=#333333;" vertex="1" parent="1">
          <mxGeometry x="558" y="285" width="28" height="26" as="geometry" />
        </mxCell>
        <mxCell id="4BS046eD1vQbMhQOOICh-22" value="" style="rounded=0;whiteSpace=wrap;html=1;shadow=1;glass=0;sketch=1;fillColor=#f5f5f5;strokeColor=#666666;fontColor=#333333;" vertex="1" parent="1">
          <mxGeometry x="586" y="285" width="28" height="26" as="geometry" />
        </mxCell>
        <mxCell id="4BS046eD1vQbMhQOOICh-23" value="" style="rounded=0;whiteSpace=wrap;html=1;shadow=1;glass=0;sketch=1;fillColor=#f5f5f5;strokeColor=#666666;fontColor=#333333;" vertex="1" parent="1">
          <mxGeometry x="530" y="311" width="28" height="26" as="geometry" />
        </mxCell>
        <mxCell id="4BS046eD1vQbMhQOOICh-24" value="" style="rounded=0;whiteSpace=wrap;html=1;shadow=1;glass=0;sketch=1;fillColor=#f5f5f5;strokeColor=#666666;fontColor=#333333;" vertex="1" parent="1">
          <mxGeometry x="558" y="311" width="28" height="26" as="geometry" />
        </mxCell>
        <mxCell id="4BS046eD1vQbMhQOOICh-25" value="" style="rounded=0;whiteSpace=wrap;html=1;shadow=1;glass=0;sketch=1;fillColor=#f5f5f5;strokeColor=#666666;fontColor=#333333;" vertex="1" parent="1">
          <mxGeometry x="586" y="311" width="28" height="26" as="geometry" />
        </mxCell>
        <mxCell id="4BS046eD1vQbMhQOOICh-26" value="" style="rounded=0;whiteSpace=wrap;html=1;shadow=1;glass=0;sketch=1;fillColor=#f5f5f5;strokeColor=#666666;fontColor=#333333;" vertex="1" parent="1">
          <mxGeometry x="530" y="337" width="28" height="26" as="geometry" />
        </mxCell>
        <mxCell id="4BS046eD1vQbMhQOOICh-27" value="" style="rounded=0;whiteSpace=wrap;html=1;shadow=1;glass=0;sketch=1;fillColor=#f5f5f5;strokeColor=#666666;fontColor=#333333;" vertex="1" parent="1">
          <mxGeometry x="558" y="337" width="28" height="26" as="geometry" />
        </mxCell>
        <mxCell id="4BS046eD1vQbMhQOOICh-28" value="" style="rounded=0;whiteSpace=wrap;html=1;shadow=1;glass=0;sketch=1;fillColor=#f5f5f5;strokeColor=#666666;fontColor=#333333;" vertex="1" parent="1">
          <mxGeometry x="586" y="337" width="28" height="26" as="geometry" />
        </mxCell>
        <mxCell id="4BS046eD1vQbMhQOOICh-29" value="" style="rounded=0;whiteSpace=wrap;html=1;shadow=1;glass=0;sketch=1;fillColor=#f5f5f5;strokeColor=#666666;fontColor=#333333;" vertex="1" parent="1">
          <mxGeometry x="530" y="363" width="28" height="26" as="geometry" />
        </mxCell>
        <mxCell id="4BS046eD1vQbMhQOOICh-30" value="" style="rounded=0;whiteSpace=wrap;html=1;shadow=1;glass=0;sketch=1;fillColor=#f5f5f5;strokeColor=#666666;fontColor=#333333;" vertex="1" parent="1">
          <mxGeometry x="558" y="363" width="28" height="26" as="geometry" />
        </mxCell>
        <mxCell id="4BS046eD1vQbMhQOOICh-31" value="" style="rounded=0;whiteSpace=wrap;html=1;shadow=1;glass=0;sketch=1;fillColor=#f5f5f5;strokeColor=#666666;fontColor=#333333;" vertex="1" parent="1">
          <mxGeometry x="586" y="363" width="28" height="26" as="geometry" />
        </mxCell>
        <mxCell id="4BS046eD1vQbMhQOOICh-32" value="&lt;div&gt;embedding layer&lt;/div&gt;" style="text;html=1;strokeColor=none;fillColor=none;align=center;verticalAlign=middle;whiteSpace=wrap;rounded=0;" vertex="1" parent="1">
          <mxGeometry x="538" y="395" width="160" height="20" as="geometry" />
        </mxCell>
        <mxCell id="4BS046eD1vQbMhQOOICh-33" value="&lt;div&gt;Promoter in one-hot&lt;/div&gt;" style="text;html=1;strokeColor=none;fillColor=none;align=center;verticalAlign=middle;whiteSpace=wrap;rounded=0;" vertex="1" parent="1">
          <mxGeometry x="290" y="300" width="160" height="20" as="geometry" />
        </mxCell>
        <mxCell id="4BS046eD1vQbMhQOOICh-34" value="&lt;div&gt;Enhancer in one-hot&lt;/div&gt;" style="text;html=1;strokeColor=none;fillColor=none;align=center;verticalAlign=middle;whiteSpace=wrap;rounded=0;" vertex="1" parent="1">
          <mxGeometry x="290" y="424" width="160" height="20" as="geometry" />
        </mxCell>
        <mxCell id="4BS046eD1vQbMhQOOICh-35" value="G" style="text;html=1;strokeColor=none;fillColor=none;align=center;verticalAlign=middle;whiteSpace=wrap;rounded=0;" vertex="1" parent="1">
          <mxGeometry x="270" y="255" width="40" height="20" as="geometry" />
        </mxCell>
        <mxCell id="4BS046eD1vQbMhQOOICh-36" value="T" style="text;html=1;strokeColor=none;fillColor=none;align=center;verticalAlign=middle;whiteSpace=wrap;rounded=0;" vertex="1" parent="1">
          <mxGeometry x="270" y="275" width="40" height="20" as="geometry" />
        </mxCell>
        <mxCell id="4BS046eD1vQbMhQOOICh-37" value="&lt;div&gt;A&lt;/div&gt;" style="text;html=1;strokeColor=none;fillColor=none;align=center;verticalAlign=middle;whiteSpace=wrap;rounded=0;" vertex="1" parent="1">
          <mxGeometry x="270" y="215" width="40" height="20" as="geometry" />
        </mxCell>
        <mxCell id="4BS046eD1vQbMhQOOICh-38" value="C" style="text;html=1;strokeColor=none;fillColor=none;align=center;verticalAlign=middle;whiteSpace=wrap;rounded=0;" vertex="1" parent="1">
          <mxGeometry x="270" y="235" width="40" height="20" as="geometry" />
        </mxCell>
        <mxCell id="4BS046eD1vQbMhQOOICh-39" value="" style="whiteSpace=wrap;html=1;aspect=fixed;fillColor=#dae8fc;strokeColor=#6c8ebf;" vertex="1" parent="1">
          <mxGeometry x="300" y="215" width="20" height="20" as="geometry" />
        </mxCell>
        <mxCell id="4BS046eD1vQbMhQOOICh-40" value="" style="whiteSpace=wrap;html=1;aspect=fixed;" vertex="1" parent="1">
          <mxGeometry x="320" y="235" width="20" height="20" as="geometry" />
        </mxCell>
        <mxCell id="4BS046eD1vQbMhQOOICh-41" value="" style="whiteSpace=wrap;html=1;aspect=fixed;fillColor=#ffe6cc;strokeColor=#d79b00;" vertex="1" parent="1">
          <mxGeometry x="320" y="235" width="20" height="20" as="geometry" />
        </mxCell>
        <mxCell id="4BS046eD1vQbMhQOOICh-42" value="" style="whiteSpace=wrap;html=1;aspect=fixed;fillColor=#ffe6cc;strokeColor=#d79b00;" vertex="1" parent="1">
          <mxGeometry x="340" y="235" width="20" height="20" as="geometry" />
        </mxCell>
        <mxCell id="4BS046eD1vQbMhQOOICh-43" value="" style="whiteSpace=wrap;html=1;aspect=fixed;fillColor=#e1d5e7;strokeColor=#9673a6;" vertex="1" parent="1">
          <mxGeometry x="360" y="275" width="20" height="20" as="geometry" />
        </mxCell>
        <mxCell id="4BS046eD1vQbMhQOOICh-44" value="" style="whiteSpace=wrap;html=1;aspect=fixed;fillColor=#f8cecc;strokeColor=#b85450;" vertex="1" parent="1">
          <mxGeometry x="380" y="255" width="20" height="20" as="geometry" />
        </mxCell>
        <mxCell id="4BS046eD1vQbMhQOOICh-45" value="" style="whiteSpace=wrap;html=1;aspect=fixed;fillColor=#f8cecc;strokeColor=#b85450;" vertex="1" parent="1">
          <mxGeometry x="400" y="255" width="20" height="20" as="geometry" />
        </mxCell>
        <mxCell id="4BS046eD1vQbMhQOOICh-46" value="" style="rounded=0;whiteSpace=wrap;html=1;" vertex="1" parent="1">
          <mxGeometry x="300" y="235" width="20" height="20" as="geometry" />
        </mxCell>
        <mxCell id="4BS046eD1vQbMhQOOICh-47" value="" style="rounded=0;whiteSpace=wrap;html=1;" vertex="1" parent="1">
          <mxGeometry x="300" y="255" width="20" height="20" as="geometry" />
        </mxCell>
        <mxCell id="4BS046eD1vQbMhQOOICh-48" value="" style="rounded=0;whiteSpace=wrap;html=1;" vertex="1" parent="1">
          <mxGeometry x="320" y="255" width="20" height="20" as="geometry" />
        </mxCell>
        <mxCell id="4BS046eD1vQbMhQOOICh-49" value="" style="rounded=0;whiteSpace=wrap;html=1;" vertex="1" parent="1">
          <mxGeometry x="340" y="255" width="20" height="20" as="geometry" />
        </mxCell>
        <mxCell id="4BS046eD1vQbMhQOOICh-50" value="" style="rounded=0;whiteSpace=wrap;html=1;" vertex="1" parent="1">
          <mxGeometry x="360" y="255" width="20" height="20" as="geometry" />
        </mxCell>
        <mxCell id="4BS046eD1vQbMhQOOICh-51" value="" style="rounded=0;whiteSpace=wrap;html=1;" vertex="1" parent="1">
          <mxGeometry x="340" y="275" width="20" height="20" as="geometry" />
        </mxCell>
        <mxCell id="4BS046eD1vQbMhQOOICh-52" value="" style="rounded=0;whiteSpace=wrap;html=1;" vertex="1" parent="1">
          <mxGeometry x="300" y="275" width="20" height="20" as="geometry" />
        </mxCell>
        <mxCell id="4BS046eD1vQbMhQOOICh-53" value="" style="rounded=0;whiteSpace=wrap;html=1;" vertex="1" parent="1">
          <mxGeometry x="320" y="275" width="20" height="20" as="geometry" />
        </mxCell>
        <mxCell id="4BS046eD1vQbMhQOOICh-54" value="" style="rounded=0;whiteSpace=wrap;html=1;" vertex="1" parent="1">
          <mxGeometry x="380" y="275" width="20" height="20" as="geometry" />
        </mxCell>
        <mxCell id="4BS046eD1vQbMhQOOICh-55" value="" style="rounded=0;whiteSpace=wrap;html=1;" vertex="1" parent="1">
          <mxGeometry x="400" y="275" width="20" height="20" as="geometry" />
        </mxCell>
        <mxCell id="4BS046eD1vQbMhQOOICh-56" value="" style="rounded=0;whiteSpace=wrap;html=1;" vertex="1" parent="1">
          <mxGeometry x="320" y="215" width="20" height="20" as="geometry" />
        </mxCell>
        <mxCell id="4BS046eD1vQbMhQOOICh-57" value="" style="rounded=0;whiteSpace=wrap;html=1;" vertex="1" parent="1">
          <mxGeometry x="340" y="215" width="20" height="20" as="geometry" />
        </mxCell>
        <mxCell id="4BS046eD1vQbMhQOOICh-58" value="" style="rounded=0;whiteSpace=wrap;html=1;" vertex="1" parent="1">
          <mxGeometry x="360" y="215" width="20" height="20" as="geometry" />
        </mxCell>
        <mxCell id="4BS046eD1vQbMhQOOICh-59" value="" style="rounded=0;whiteSpace=wrap;html=1;" vertex="1" parent="1">
          <mxGeometry x="380" y="215" width="20" height="20" as="geometry" />
        </mxCell>
        <mxCell id="4BS046eD1vQbMhQOOICh-60" value="" style="rounded=0;whiteSpace=wrap;html=1;" vertex="1" parent="1">
          <mxGeometry x="360" y="235" width="20" height="20" as="geometry" />
        </mxCell>
        <mxCell id="4BS046eD1vQbMhQOOICh-61" value="" style="rounded=0;whiteSpace=wrap;html=1;" vertex="1" parent="1">
          <mxGeometry x="380" y="235" width="20" height="20" as="geometry" />
        </mxCell>
        <mxCell id="4BS046eD1vQbMhQOOICh-62" value="" style="rounded=0;whiteSpace=wrap;html=1;" vertex="1" parent="1">
          <mxGeometry x="400" y="235" width="20" height="20" as="geometry" />
        </mxCell>
        <mxCell id="4BS046eD1vQbMhQOOICh-63" value="" style="rounded=0;whiteSpace=wrap;html=1;" vertex="1" parent="1">
          <mxGeometry x="400" y="215" width="20" height="20" as="geometry" />
        </mxCell>
        <mxCell id="4BS046eD1vQbMhQOOICh-64" value="" style="whiteSpace=wrap;html=1;aspect=fixed;fillColor=#e1d5e7;strokeColor=#9673a6;" vertex="1" parent="1">
          <mxGeometry x="420" y="275" width="20" height="20" as="geometry" />
        </mxCell>
        <mxCell id="4BS046eD1vQbMhQOOICh-65" value="" style="rounded=0;whiteSpace=wrap;html=1;" vertex="1" parent="1">
          <mxGeometry x="420" y="255" width="20" height="20" as="geometry" />
        </mxCell>
        <mxCell id="4BS046eD1vQbMhQOOICh-66" value="" style="rounded=0;whiteSpace=wrap;html=1;" vertex="1" parent="1">
          <mxGeometry x="420" y="215" width="20" height="20" as="geometry" />
        </mxCell>
        <mxCell id="4BS046eD1vQbMhQOOICh-67" style="edgeStyle=orthogonalEdgeStyle;curved=1;rounded=0;orthogonalLoop=1;jettySize=auto;html=1;entryX=0;entryY=0.5;entryDx=0;entryDy=0;exitX=1;exitY=1;exitDx=0;exitDy=0;" edge="1" parent="1" source="4BS046eD1vQbMhQOOICh-68">
          <mxGeometry relative="1" as="geometry">
            <mxPoint x="530" y="325" as="targetPoint" />
            <Array as="points">
              <mxPoint x="480" y="255.5" />
              <mxPoint x="480" y="325.5" />
            </Array>
          </mxGeometry>
        </mxCell>
        <mxCell id="4BS046eD1vQbMhQOOICh-68" value="" style="rounded=0;whiteSpace=wrap;html=1;" vertex="1" parent="1">
          <mxGeometry x="420" y="235" width="20" height="20" as="geometry" />
        </mxCell>
        <mxCell id="4BS046eD1vQbMhQOOICh-69" value="G" style="text;html=1;strokeColor=none;fillColor=none;align=center;verticalAlign=middle;whiteSpace=wrap;rounded=0;" vertex="1" parent="1">
          <mxGeometry x="270" y="384" width="40" height="20" as="geometry" />
        </mxCell>
        <mxCell id="4BS046eD1vQbMhQOOICh-70" value="T" style="text;html=1;strokeColor=none;fillColor=none;align=center;verticalAlign=middle;whiteSpace=wrap;rounded=0;" vertex="1" parent="1">
          <mxGeometry x="270" y="404" width="40" height="20" as="geometry" />
        </mxCell>
        <mxCell id="4BS046eD1vQbMhQOOICh-71" value="&lt;div&gt;A&lt;/div&gt;" style="text;html=1;strokeColor=none;fillColor=none;align=center;verticalAlign=middle;whiteSpace=wrap;rounded=0;" vertex="1" parent="1">
          <mxGeometry x="270" y="344" width="40" height="20" as="geometry" />
        </mxCell>
        <mxCell id="4BS046eD1vQbMhQOOICh-72" value="C" style="text;html=1;strokeColor=none;fillColor=none;align=center;verticalAlign=middle;whiteSpace=wrap;rounded=0;" vertex="1" parent="1">
          <mxGeometry x="270" y="364" width="40" height="20" as="geometry" />
        </mxCell>
        <mxCell id="4BS046eD1vQbMhQOOICh-73" value="" style="whiteSpace=wrap;html=1;aspect=fixed;" vertex="1" parent="1">
          <mxGeometry x="300" y="344" width="20" height="20" as="geometry" />
        </mxCell>
        <mxCell id="4BS046eD1vQbMhQOOICh-74" value="" style="whiteSpace=wrap;html=1;aspect=fixed;" vertex="1" parent="1">
          <mxGeometry x="320" y="364" width="20" height="20" as="geometry" />
        </mxCell>
        <mxCell id="4BS046eD1vQbMhQOOICh-75" value="" style="whiteSpace=wrap;html=1;aspect=fixed;" vertex="1" parent="1">
          <mxGeometry x="320" y="364" width="20" height="20" as="geometry" />
        </mxCell>
        <mxCell id="4BS046eD1vQbMhQOOICh-76" value="" style="whiteSpace=wrap;html=1;aspect=fixed;" vertex="1" parent="1">
          <mxGeometry x="340" y="364" width="20" height="20" as="geometry" />
        </mxCell>
        <mxCell id="4BS046eD1vQbMhQOOICh-77" value="" style="whiteSpace=wrap;html=1;aspect=fixed;" vertex="1" parent="1">
          <mxGeometry x="360" y="404" width="20" height="20" as="geometry" />
        </mxCell>
        <mxCell id="4BS046eD1vQbMhQOOICh-78" value="" style="whiteSpace=wrap;html=1;aspect=fixed;" vertex="1" parent="1">
          <mxGeometry x="380" y="384" width="20" height="20" as="geometry" />
        </mxCell>
        <mxCell id="4BS046eD1vQbMhQOOICh-79" value="" style="whiteSpace=wrap;html=1;aspect=fixed;fillColor=#f8cecc;strokeColor=#b85450;" vertex="1" parent="1">
          <mxGeometry x="400" y="384" width="20" height="20" as="geometry" />
        </mxCell>
        <mxCell id="4BS046eD1vQbMhQOOICh-80" value="" style="rounded=0;whiteSpace=wrap;html=1;" vertex="1" parent="1">
          <mxGeometry x="300" y="364" width="20" height="20" as="geometry" />
        </mxCell>
        <mxCell id="4BS046eD1vQbMhQOOICh-81" value="" style="rounded=0;whiteSpace=wrap;html=1;" vertex="1" parent="1">
          <mxGeometry x="300" y="384" width="20" height="20" as="geometry" />
        </mxCell>
        <mxCell id="4BS046eD1vQbMhQOOICh-82" value="" style="rounded=0;whiteSpace=wrap;html=1;" vertex="1" parent="1">
          <mxGeometry x="320" y="384" width="20" height="20" as="geometry" />
        </mxCell>
        <mxCell id="4BS046eD1vQbMhQOOICh-83" value="" style="rounded=0;whiteSpace=wrap;html=1;fillColor=#f8cecc;strokeColor=#b85450;" vertex="1" parent="1">
          <mxGeometry x="340" y="384" width="20" height="20" as="geometry" />
        </mxCell>
        <mxCell id="4BS046eD1vQbMhQOOICh-84" value="" style="rounded=0;whiteSpace=wrap;html=1;" vertex="1" parent="1">
          <mxGeometry x="360" y="384" width="20" height="20" as="geometry" />
        </mxCell>
        <mxCell id="4BS046eD1vQbMhQOOICh-85" value="" style="rounded=0;whiteSpace=wrap;html=1;" vertex="1" parent="1">
          <mxGeometry x="340" y="404" width="20" height="20" as="geometry" />
        </mxCell>
        <mxCell id="4BS046eD1vQbMhQOOICh-86" value="" style="rounded=0;whiteSpace=wrap;html=1;fillColor=#e1d5e7;strokeColor=#9673a6;" vertex="1" parent="1">
          <mxGeometry x="300" y="404" width="20" height="20" as="geometry" />
        </mxCell>
        <mxCell id="4BS046eD1vQbMhQOOICh-87" value="" style="rounded=0;whiteSpace=wrap;html=1;fillColor=#e1d5e7;strokeColor=#9673a6;" vertex="1" parent="1">
          <mxGeometry x="320" y="404" width="20" height="20" as="geometry" />
        </mxCell>
        <mxCell id="4BS046eD1vQbMhQOOICh-88" value="" style="rounded=0;whiteSpace=wrap;html=1;" vertex="1" parent="1">
          <mxGeometry x="380" y="404" width="20" height="20" as="geometry" />
        </mxCell>
        <mxCell id="4BS046eD1vQbMhQOOICh-89" value="" style="rounded=0;whiteSpace=wrap;html=1;" vertex="1" parent="1">
          <mxGeometry x="400" y="404" width="20" height="20" as="geometry" />
        </mxCell>
        <mxCell id="4BS046eD1vQbMhQOOICh-90" value="" style="rounded=0;whiteSpace=wrap;html=1;" vertex="1" parent="1">
          <mxGeometry x="320" y="344" width="20" height="20" as="geometry" />
        </mxCell>
        <mxCell id="4BS046eD1vQbMhQOOICh-91" value="" style="rounded=0;whiteSpace=wrap;html=1;" vertex="1" parent="1">
          <mxGeometry x="340" y="344" width="20" height="20" as="geometry" />
        </mxCell>
        <mxCell id="4BS046eD1vQbMhQOOICh-92" value="" style="rounded=0;whiteSpace=wrap;html=1;fillColor=#dae8fc;strokeColor=#6c8ebf;" vertex="1" parent="1">
          <mxGeometry x="360" y="344" width="20" height="20" as="geometry" />
        </mxCell>
        <mxCell id="4BS046eD1vQbMhQOOICh-93" value="" style="rounded=0;whiteSpace=wrap;html=1;fillColor=#dae8fc;strokeColor=#6c8ebf;" vertex="1" parent="1">
          <mxGeometry x="380" y="344" width="20" height="20" as="geometry" />
        </mxCell>
        <mxCell id="4BS046eD1vQbMhQOOICh-94" value="" style="rounded=0;whiteSpace=wrap;html=1;" vertex="1" parent="1">
          <mxGeometry x="360" y="364" width="20" height="20" as="geometry" />
        </mxCell>
        <mxCell id="4BS046eD1vQbMhQOOICh-95" value="" style="rounded=0;whiteSpace=wrap;html=1;" vertex="1" parent="1">
          <mxGeometry x="380" y="364" width="20" height="20" as="geometry" />
        </mxCell>
        <mxCell id="4BS046eD1vQbMhQOOICh-96" value="" style="rounded=0;whiteSpace=wrap;html=1;" vertex="1" parent="1">
          <mxGeometry x="400" y="364" width="20" height="20" as="geometry" />
        </mxCell>
        <mxCell id="4BS046eD1vQbMhQOOICh-97" value="" style="rounded=0;whiteSpace=wrap;html=1;" vertex="1" parent="1">
          <mxGeometry x="400" y="344" width="20" height="20" as="geometry" />
        </mxCell>
        <mxCell id="4BS046eD1vQbMhQOOICh-98" value="" style="whiteSpace=wrap;html=1;aspect=fixed;fillColor=#e1d5e7;strokeColor=#9673a6;" vertex="1" parent="1">
          <mxGeometry x="420" y="404" width="20" height="20" as="geometry" />
        </mxCell>
        <mxCell id="4BS046eD1vQbMhQOOICh-99" value="" style="rounded=0;whiteSpace=wrap;html=1;" vertex="1" parent="1">
          <mxGeometry x="420" y="384" width="20" height="20" as="geometry" />
        </mxCell>
        <mxCell id="4BS046eD1vQbMhQOOICh-100" value="" style="rounded=0;whiteSpace=wrap;html=1;" vertex="1" parent="1">
          <mxGeometry x="420" y="344" width="20" height="20" as="geometry" />
        </mxCell>
        <mxCell id="4BS046eD1vQbMhQOOICh-101" style="edgeStyle=orthogonalEdgeStyle;curved=1;rounded=0;orthogonalLoop=1;jettySize=auto;html=1;entryX=0;entryY=0.5;entryDx=0;entryDy=0;exitX=1;exitY=1;exitDx=0;exitDy=0;" edge="1" parent="1" source="4BS046eD1vQbMhQOOICh-102">
          <mxGeometry relative="1" as="geometry">
            <mxPoint x="530" y="325" as="targetPoint" />
            <Array as="points">
              <mxPoint x="480" y="384.5" />
              <mxPoint x="480" y="324.5" />
            </Array>
          </mxGeometry>
        </mxCell>
        <mxCell id="4BS046eD1vQbMhQOOICh-102" value="" style="rounded=0;whiteSpace=wrap;html=1;" vertex="1" parent="1">
          <mxGeometry x="420" y="364" width="20" height="20" as="geometry" />
        </mxCell>
      </root>
    </mxGraphModel>
  </diagram>
</mxfile>
